<?xml version="1.0" encoding="UTF-8" standalone="no"?>
<!-- Created with Inkscape (http://www.inkscape.org/) -->

<svg
   xmlns:dc="http://purl.org/dc/elements/1.1/"
   xmlns:cc="http://creativecommons.org/ns#"
   xmlns:rdf="http://www.w3.org/1999/02/22-rdf-syntax-ns#"
   xmlns:svg="http://www.w3.org/2000/svg"
   xmlns="http://www.w3.org/2000/svg"
   xmlns:sodipodi="http://sodipodi.sourceforge.net/DTD/sodipodi-0.dtd"
   xmlns:inkscape="http://www.inkscape.org/namespaces/inkscape"
   id="svg13195"
   sodipodi:docname="icon.svg"
   viewBox="0 0 78 90.921718"
   version="1.1"
   inkscape:version="0.91 r13725"
   width="78"
   height="78"
   inkscape:export-filename="/home/rutledge/prj/pebble/sologyr/icon.png"
   inkscape:export-xdpi="221.53999"
   inkscape:export-ydpi="221.53999">
  <defs
     id="defs13197">
    <filter
       id="filter3946"
       inkscape:collect="always"
       style="color-interpolation-filters:sRGB">
      <feGaussianBlur
         id="feGaussianBlur3948"
         stdDeviation="0.97976562"
         inkscape:collect="always" />
    </filter>
    <filter
       id="filter6874"
       inkscape:collect="always"
       style="color-interpolation-filters:sRGB">
      <feGaussianBlur
         id="feGaussianBlur6876"
         stdDeviation="3.0304575"
         inkscape:collect="always" />
    </filter>
    <radialGradient
       id="radialGradient11243"
       gradientUnits="userSpaceOnUse"
       cy="341.26001"
       cx="115.06"
       gradientTransform="matrix(0.36536234,-0.01409149,0.02068349,0.53627379,142.91095,209.88356)"
       r="50.507999"
       inkscape:collect="always">
      <stop
         id="stop3876"
         style="stop-color:yellow"
         offset="0" />
      <stop
         id="stop3874"
         style="stop-color:#fea917"
         offset="1" />
    </radialGradient>
    <linearGradient
       id="linearGradient11245"
       y2="268.06"
       gradientUnits="userSpaceOnUse"
       x2="183.11"
       y1="386.07001"
       x1="63.077"
       inkscape:collect="always">
      <stop
         id="stop3884"
         style="stop-color:yellow"
         offset="0" />
      <stop
         id="stop3886"
         style="stop-color:yellow;stop-opacity:0"
         offset="1" />
    </linearGradient>
    <filter
       id="filter3868"
       inkscape:collect="always"
       style="color-interpolation-filters:sRGB">
      <feGaussianBlur
         id="feGaussianBlur3870"
         stdDeviation="2.020305"
         inkscape:collect="always" />
    </filter>
    <linearGradient
       id="linearGradient11247"
       y2="313.87"
       gradientUnits="userSpaceOnUse"
       x2="124.3"
       y1="208.28"
       x1="142.85001"
       inkscape:collect="always"
       gradientTransform="matrix(0.33638228,0,0,0.33638228,154.12904,275.76695)">
      <stop
         id="stop3910"
         style="stop-color:white"
         offset="0" />
      <stop
         id="stop3912"
         style="stop-color:white;stop-opacity:0"
         offset="1" />
    </linearGradient>
    <filter
       id="filter6242-0"
       width="1.1762"
       y="-0.10543"
       x="-0.088122003"
       height="1.2108999"
       inkscape:collect="always"
       style="color-interpolation-filters:sRGB">
      <feGaussianBlur
         id="feGaussianBlur6244-1"
         stdDeviation="1.8310201"
         inkscape:collect="always" />
    </filter>
    <linearGradient
       id="linearGradient11249"
       y2="460.25"
       gradientUnits="userSpaceOnUse"
       x2="-652.09003"
       gradientTransform="translate(89.602,-96.747)"
       y1="502.75"
       x1="-788.47998"
       inkscape:collect="always">
      <stop
         id="stop4166"
         style="stop-color:#57646d"
         offset="0" />
      <stop
         id="stop4168"
         style="stop-color:#57646d;stop-opacity:0"
         offset="1" />
    </linearGradient>
    <filter
       id="filter4184-9"
       inkscape:collect="always"
       style="color-interpolation-filters:sRGB">
      <feGaussianBlur
         id="feGaussianBlur4186-0"
         stdDeviation="1.0373252"
         inkscape:collect="always" />
    </filter>
    <filter
       id="filter6014-1"
       width="1.1302"
       y="-0.18254"
       x="-0.065125003"
       height="1.3651"
       inkscape:collect="always"
       style="color-interpolation-filters:sRGB">
      <feGaussianBlur
         id="feGaussianBlur6016-5"
         stdDeviation="0.98679277"
         inkscape:collect="always" />
    </filter>
    <filter
       id="filter6032-8"
       width="1.0582"
       y="-0.13717"
       x="-0.02909"
       height="1.2743"
       inkscape:collect="always"
       style="color-interpolation-filters:sRGB">
      <feGaussianBlur
         id="feGaussianBlur6034-9"
         stdDeviation="0.69736748"
         inkscape:collect="always" />
    </filter>
    <filter
       id="filter6268-9"
       width="1.0811"
       y="-0.32009"
       x="-0.040562"
       height="1.6402"
       inkscape:collect="always"
       style="color-interpolation-filters:sRGB">
      <feGaussianBlur
         id="feGaussianBlur6270-4"
         stdDeviation="1.5493216"
         inkscape:collect="always" />
    </filter>
    <filter
       id="filter4261-1"
       width="1.1188"
       y="-0.1435"
       x="-0.059379"
       height="1.2869999"
       inkscape:collect="always"
       style="color-interpolation-filters:sRGB">
      <feGaussianBlur
         id="feGaussianBlur4263-5"
         stdDeviation="1.6347286"
         inkscape:collect="always" />
    </filter>
    <linearGradient
       id="linearGradient11251"
       y2="226.34"
       gradientUnits="userSpaceOnUse"
       x2="-1066.5"
       gradientTransform="translate(401.03,131.82)"
       y1="282.48999"
       x1="-1055.3"
       inkscape:collect="always">
      <stop
         id="stop5874"
         style="stop-color:#ccc"
         offset="0" />
      <stop
         id="stop5876"
         style="stop-color:gray"
         offset="1" />
    </linearGradient>
    <filter
       id="filter4210-5"
       inkscape:collect="always"
       style="color-interpolation-filters:sRGB">
      <feGaussianBlur
         id="feGaussianBlur4212-2"
         stdDeviation="1.8857158"
         inkscape:collect="always" />
    </filter>
    <filter
       id="filter4331-7"
       width="1.2413"
       y="-0.35448"
       x="-0.12063"
       height="1.709"
       inkscape:collect="always"
       style="color-interpolation-filters:sRGB">
      <feGaussianBlur
         id="feGaussianBlur4333-5"
         stdDeviation="1.918981"
         inkscape:collect="always" />
    </filter>
    <filter
       id="filter5968-2"
       width="1.2678"
       y="-0.42840001"
       x="-0.13388"
       height="1.8568"
       inkscape:collect="always"
       style="color-interpolation-filters:sRGB">
      <feGaussianBlur
         id="feGaussianBlur5970-6"
         stdDeviation="1.3523419"
         inkscape:collect="always" />
    </filter>
    <filter
       id="filter6074-5"
       width="1.0657001"
       y="-0.34799999"
       x="-0.03283"
       height="1.696"
       inkscape:collect="always"
       style="color-interpolation-filters:sRGB">
      <feGaussianBlur
         id="feGaussianBlur6076-3"
         stdDeviation="0.36618025"
         inkscape:collect="always" />
    </filter>
    <filter
       id="filter6192-7"
       width="1.5547"
       y="-0.29951999"
       x="-0.27733001"
       height="1.599"
       inkscape:collect="always"
       style="color-interpolation-filters:sRGB">
      <feGaussianBlur
         id="feGaussianBlur6194-0"
         stdDeviation="0.7879194"
         inkscape:collect="always" />
    </filter>
    <filter
       id="filter6354-6"
       width="1.2229"
       y="-0.46799999"
       x="-0.11143"
       height="1.936"
       inkscape:collect="always"
       style="color-interpolation-filters:sRGB">
      <feGaussianBlur
         id="feGaussianBlur6356-8"
         stdDeviation="0.98489887"
         inkscape:collect="always" />
    </filter>
  </defs>
  <sodipodi:namedview
     id="base"
     bordercolor="#666666"
     inkscape:pageshadow="2"
     inkscape:window-y="200"
     fit-margin-left="0"
     pagecolor="#ffffff"
     fit-margin-top="0"
     inkscape:window-maximized="1"
     inkscape:zoom="7.9195959"
     inkscape:window-x="0"
     inkscape:window-height="1179"
     showgrid="false"
     borderopacity="1.0"
     inkscape:current-layer="layer1"
     inkscape:cx="12.963241"
     inkscape:cy="50.699336"
     fit-margin-right="0"
     fit-margin-bottom="0"
     inkscape:window-width="1920"
     inkscape:pageopacity="0.0"
     inkscape:document-units="px" />
  <g
     id="layer1"
     inkscape:label="Ebene 1"
     inkscape:groupmode="layer"
     transform="translate(-174.21752,-350.84168)">
    <rect
       x="166.27835"
       y="340.53021"
       width="110"
       height="110"
       style="color:#000000;opacity:0;stroke-width:6.80000019"
       id="rect6741" />
    <path
       d="m 126.25,352.5 2.4062,52.281 -5.91,-32.28 4.1562,32.812 -4.1875,-17.781 -2.625,-16.219 1.7188,12.344 -5.5625,-23.719 7.5938,43.031 -7.5938,-25.844 3.9688,21.312 -13.781,-40.562 12.281,44 -10.531,-26.125 5.9375,20.625 -14.719,-31.812 13.906,40.594 -9.9375,-16.938 -3.4062,-6.5625 1.3438,3.0312 -11.906,-20.281 21.281,46.781 -0.96875,-1.3438 -18,-27.719 6.782,12.1 -7.5,-10.44 10.19,17.84 -20.69,-28.65 22.31,35.59 -13.56,-16.97 13.75,20.22 -32.406,-36.75 26.812,34.75 -15.844,-16.281 17.656,21.188 -29.938,-27.812 32.5,35.25 -12.5,-9.375 -28.938,-22.094 37.375,33.375 -31.031,-18.906 4.1875,3.1562 -1.5312,-0.9375 10.375,7.6875 4.8125,3.6562 -31.938,-17.344 31.062,21.25 -15.5,-8.5 18.75,10.719 2.1562,1.4688 -44.625,-18.875 34.469,18.938 -17,-7.2812 20.594,9.25 7.625,4.1875 -20.906,-6.625 -21.406,-7.9688 15.719,6.1562 -5.875,-1.875 13.25,5.75 -9.8125,-2.875 27.377,12.41 -2.094,-0.41 -45.219,-11.97 36.062,10.219 -21.531,-4.125 16.375,5.5938 -30.812,-4.31 15.688,4.4688 -0.625,-0.0937 0.71875,0.125 19.75,5.6562 -13.594,-0.5625 -7.1562,-0.84375 5,0.75 -25.25,-1.0625 43.188,7.9062 -3.125,0.15625 -23.781,-0.46875 16.469,0.84375 -15.406,0.78125 19.219,1.7188 -34.312,1.0312 46.938,0.0937 0.9375,0.0937 -27.438,3.6875 32.625,-1.5312 -30.347,3.91 -4.344,0.53 -21.906,2.81 50.469,-4.8125 -28.812,6.75 22.719,-3.2812 -15.656,4.5312 -9.5,2.125 6.3125,-1.2188 -16.312,4.7188 45.28,-8.81 -30.375,9.69 22.187,-6.41 -38.531,15.28 46.219,-13.75 -30.625,13.16 33.094,-13.16 -29.5,15 4.3438,-1.75 -19.188,9.4062 31.188,-14.219 13.156,-5.3125 -24,14.938 30.062,-15.938 -49.812,30.719 48.312,-28 -27.625,21.156 19.625,-13 -17.469,14.812 -3.125,2.3438 2.125,-1.5 -9.9375,8.4062 41.25,-30.344 -26.692,25.97 6.625,-5.3125 -18.656,19.188 32.031,-28.719 7.6562,-6.8125 -24.969,29.5 13.625,-13.28 -4.25,5.5312 -6.0312,7.4688 1.8438,-2 -11.688,15.312 31.25,-33.781 -1.0312,1.6562 -13.75,19.531 6.656,-8.16 -18.5,29.844 29.625,-39.031 -13.75,24.25 12.469,-18.625 -16.188,32.094 22.406,-37.344 3,-4.8438 -13.594,31.719 5.2188,-10.094 -10.938,28.25 22.375,-47.156 -11.156,35.062 8.4688,-21.125 -1.125,4.2812 -4.5938,16.094 1.2188,-3.3125 -4.8438,18.281 12.656,-36.875 -5.5,22.938 6.9375,-18.594 -6.3438,38.938 9.4375,-39.625 -3.4062,24.406 4.4062,-16.562 -2.8125,30.938 3.8438,-18.062 -0.21875,3.0938 0.90625,-6.375 4.0938,-19.25 0.3125,45.688 5.4375,-48.25 3.0625,30.406 0.5,-25.156 4.1875,37.25 -3.9688,-46.062 5.375,28.062 -1.875,-27.406 10.219,48.219 -8.7812,-47.5 8.4062,28.656 -2.6875,-16.125 9.7812,28.188 -8.6875,-39.562 6.6875,14.531 3.4688,9 -2.0312,-5.9062 10.562,22.938 -14.625,-45.25 2.2188,3.8438 12.312,24.562 -7.125,-15.594 7.6562,13.219 -6.1875,-14.438 15.375,27.25 -21.125,-40.844 15.594,24.562 -21.094,-37.594 36.875,52.656 -26.125,-40.344 18.719,23.969 -17.25,-24.75 28.72,33.26 -19.19,-24.79 11.31,13.35 -22.81,-28.97 22.375,22 -5.875,-7.5312 24.062,22.906 -35.75,-37.938 -1.6875,-2.1875 26.938,21.844 -9.7812,-10.344 13.031,10.312 -7.0312,-6.1875 16.312,11.906 -27.43,-26.28 36.219,21.438 -34.75,-27.344 18.438,8.7188 7.2188,3.875 -4.3125,-2.5 2.8438,1.3438 -20.156,-13.031 35.438,16.844 -41,-21.156 27.969,10.719 -38.188,-16.594 -3.8438,-2.5 25.438,9.1875 17.25,6.3125 -2.0938,-0.84375 22.062,7.9688 -44.781,-17.844 30.188,8.3125 -32.188,-10.406 46.344,10.312 -15.906,-4.2812 -24.938,-7.3438 21.781,3.5625 -25,-6.4062 50.281,6.1875 -49.656,-8.3438 29.031,1.875 -19.938,-3.0938 33.188,0.46875 -14.03,-1.44 4.6875,0.125 -11.469,-0.84375 -24.562,-2.5625 19.062,-1.5625 11.5,-0.5 -4.0625,-0.125 23.281,-1.9375 -53.188,-0.34375 37.125,-5.2188 -13.781,0.90625 12.312,-2.1875 -15.594,1.3438 29.625,-5.6562 -42.594,4.9375 27.438,-6.4062 -19.344,2.5625 36.938,-10.844 -43.812,9.4375 27.906,-9.4375 -22.406,5.25 33.906,-13.375 -26.281,7.5625 8.8125,-3.375 -24.969,7.5312 42.969,-21.969 -26.562,10.5 8.8438,-4.4062 -28.844,11.844 0.34375,-0.21875 38.312,-21.469 -17.188,8.0938 5.5,-3.5 -25.125,12.719 -9.25,4.3438 29.156,-19.781 -6.375,3.5938 4.8438,-3.3438 -2,1.1875 19.25,-13.406 -45.688,27.188 28.312,-23.5 -6.2812,4.375 4.7188,-3.9688 -22.531,16.406 31.5,-28.906 -31.219,24.156 13.5,-13.406 -22.25,20.219 22.219,-24.531 -1.4062,1.3125 15.656,-17.438 -30,28.281 12.68,-15.32 -21.12,23.28 20.62,-27.74 -7.5,8.53 12.59,-16.91 -29.97,36.59 -1.4062,1.5938 18,-30.594 -6.96,9.91 4.94,-8.06 -4.78,7.06 15.09,-24.94 -29,43.375 15.844,-34.125 -6.25,11.031 4.3125,-8.9062 -11.91,21.9 15.47,-38.09 -18.75,37.188 7.6875,-21.594 -8.5938,19.438 12.531,-42.312 -15.719,40.562 5.8125,-23.219 -7.7188,23.281 5.0625,-25.594 -2.9375,10.312 4.3438,-21.844 -7.8125,28.125 2.5938,-14.594 -3.75,18.844 -4.6562,16.781 2.1562,-22.062 1.25,-11.875 -0.125,0.75 2.125,-21.562 -5.2812,30.062 1.2188,-15.438 -2,19.969 -3.2812,18.594 0,-2 1.4688,-50.406 -1.29,25.34 0.0625,-9.25 -2.0625,25.188 -1.9062,-22.562 0.96875,34.062 -0.5625,7.0312 -0.1875,-1 -2.62,-41.47 0.44,10.91 -2.19,-32.41 z"
       inkscape:connector-curvature="0"
       transform="matrix(0.3242336,0,0,0.3242336,156.35465,235.45299)"
       style="color:#000000;opacity:0.8;fill:#ffdd55;filter:url(#filter3946)"
       id="path7286" />
    <circle
       r="50.507626"
       cy="316.97113"
       cx="134.3503"
       transform="matrix(0.42238352,0,0,0.42238352,142.41295,249.11354)"
       style="color:#000000;opacity:0.93999999;fill:#ffdd55;filter:url(#filter6874)"
       id="path7288" />
    <circle
       id="path7292"
       style="color:#000000;fill:url(#radialGradient11243)"
       cx="199.06093"
       cy="382.38956"
       r="18.467251" />
    <circle
       id="path7294"
       style="color:#000000;fill:url(#linearGradient11245);filter:url(#filter3868)"
       transform="matrix(0.33638228,0,0,0.33638228,154.12904,275.76695)"
       cx="134.3503"
       cy="316.97113"
       r="50.507626" />
    <circle
       id="path7296"
       style="color:#000000;fill:url(#linearGradient11247)"
       cx="199.32208"
       cy="382.39041"
       r="16.98987" />
    <path
       d="m 200.80688,389.46748 c 0,0 -0.55918,13.05783 -0.6514,17.34934 -0.007,0.33735 0.0592,0.93301 0.3966,0.9313 0.33263,-0.002 0.37346,-0.58951 0.38162,-0.92207 0.1037,-4.22648 -0.12682,-17.35857 -0.12682,-17.35857 z"
       inkscape:connector-curvature="0"
       style="fill:#6f8a91"
       sodipodi:nodetypes="csasc"
       id="path7016" />
    <path
       inkscape:connector-curvature="0"
       style="fill:#6f8a91"
       sodipodi:nodetypes="csasc"
       d="m 209.39912,408.02356 c 0,0 -0.52472,12.25268 -0.61125,16.27976 -0.007,0.31655 0.0555,0.87551 0.37216,0.87386 0.31212,-0.001 0.35044,-0.55316 0.35809,-0.86522 0.0973,-3.96602 -0.119,-16.28899 -0.119,-16.28899 z"
       id="path7018" />
    <path
       inkscape:connector-curvature="0"
       style="fill:#6f8a91"
       sodipodi:nodetypes="csasc"
       d="m 217.52977,398.06632 c 0,0 -0.47541,11.10133 -0.5538,14.7499 -0.006,0.28679 0.0503,0.79322 0.33718,0.79177 0.28279,-10e-4 0.3175,-0.50119 0.32444,-0.78392 0.0882,-3.59325 -0.10782,-14.75782 -0.10782,-14.75782 z"
       id="path7020" />
    <path
       inkscape:connector-curvature="0"
       style="fill:#6f8a91"
       sodipodi:nodetypes="csasc"
       d="m 213.08528,403.67139 c 0,0 -0.25503,5.95522 -0.29709,7.91238 -0.003,0.15385 0.027,0.42553 0.18089,0.42475 0.1517,-6.6e-4 0.17032,-0.26887 0.17404,-0.42053 0.0473,-1.92761 -0.0578,-7.91699 -0.0578,-7.91699 z"
       id="path7022" />
    <path
       inkscape:connector-curvature="0"
       style="fill:#6f8a91"
       sodipodi:nodetypes="csasc"
       d="m 214.93825,392.1777 c 0,0 -0.81893,19.12252 -0.95398,25.40811 -0.0106,0.49405 0.0867,1.36638 0.58082,1.36394 0.48712,-0.003 0.54692,-0.86331 0.55887,-1.35036 0.15187,-6.18964 -0.18572,-25.4213 -0.18572,-25.4213 z"
       id="path7024" />
    <path
       inkscape:connector-curvature="0"
       style="fill:#6f8a91"
       sodipodi:nodetypes="csasc"
       d="m 222.98318,404.62095 c 0,0 -0.3789,8.84744 -0.44139,11.75614 -0.005,0.22859 0.0401,0.63221 0.26874,0.63105 0.22538,-0.001 0.25305,-0.39945 0.25857,-0.62477 0.0703,-2.86386 -0.0859,-11.76208 -0.0859,-11.76208 z"
       id="path7026" />
    <path
       inkscape:connector-curvature="0"
       style="fill:#6f8a91"
       sodipodi:nodetypes="csasc"
       d="m 225.1197,392.16451 c 0,0 -0.64023,14.94971 -0.74581,19.86371 -0.008,0.38625 0.0678,1.06826 0.45409,1.06628 0.38084,-0.002 0.42758,-0.67498 0.43692,-1.05567 0.11874,-4.83908 -0.1452,-19.87492 -0.1452,-19.87492 z"
       id="path7028" />
    <path
       inkscape:connector-curvature="0"
       style="fill:#6f8a91"
       sodipodi:nodetypes="csasc"
       d="m 218.68376,409.88312 c 0,0 -0.74831,17.47397 -0.87176,23.21818 -0.01,0.45145 0.0792,1.24861 0.53076,1.24631 0.44514,-0.003 0.49978,-0.78893 0.5107,-1.23391 0.13877,-5.65611 -0.16972,-23.23005 -0.16972,-23.23005 z"
       id="path7030" />
    <path
       inkscape:connector-curvature="0"
       style="fill:#6f8a91"
       sodipodi:nodetypes="csasc"
       d="m 237.3915,393.62183 c 0,0 -0.85645,19.99955 -0.9977,26.57396 -0.0111,0.51671 0.0907,1.4291 0.60746,1.42646 0.50948,-0.003 0.57202,-0.90294 0.58451,-1.41228 0.15885,-6.47359 -0.19423,-26.58781 -0.19423,-26.58781 z"
       id="path7034" />
    <path
       inkscape:connector-curvature="0"
       style="fill:#6f8a91"
       sodipodi:nodetypes="csasc"
       d="m 222.26441,396.68153 c 0,0 -0.48596,11.34796 -0.56611,15.07764 -0.007,0.29318 0.0514,0.81083 0.34467,0.80938 0.28907,-0.001 0.32456,-0.51232 0.33165,-0.80133 0.0901,-3.67304 -0.11021,-15.08555 -0.11021,-15.08555 z"
       id="path7036" />
    <path
       inkscape:connector-curvature="0"
       style="fill:#6f8a91"
       sodipodi:nodetypes="csasc"
       d="m 227.36172,388.32668 c 0,0 -0.63882,14.91674 -0.74415,19.82019 -0.008,0.38539 0.0676,1.06589 0.45308,1.06391 0.38,-0.002 0.42664,-0.67347 0.43596,-1.05336 0.11847,-4.8284 -0.14487,-19.83074 -0.14487,-19.83074 z"
       id="path7038" />
    <path
       inkscape:connector-curvature="0"
       style="fill:#6f8a91"
       sodipodi:nodetypes="csasc"
       d="m 230.28955,406.9553 c 0,0 -0.74864,17.48188 -0.87208,23.22741 -0.01,0.45166 0.0793,1.24914 0.53097,1.24683 0.44533,-0.003 0.5,-0.78926 0.51092,-1.23443 0.13884,-5.65849 -0.16978,-23.23994 -0.16978,-23.23994 z"
       id="path7040" />
    <path
       inkscape:connector-curvature="0"
       style="fill:#6f8a91"
       sodipodi:nodetypes="csasc"
       d="m 226.58361,408.73573 c 0,0 -0.47987,11.20553 -0.559,14.88839 -0.006,0.2895 0.0508,0.80066 0.34034,0.79921 0.28545,-0.001 0.32048,-0.50588 0.32748,-0.79123 0.089,-3.62701 -0.10882,-14.8963 -0.10882,-14.8963 z"
       id="path7042" />
    <path
       inkscape:connector-curvature="0"
       style="fill:#6f8a91"
       sodipodi:nodetypes="csasc"
       d="m 231.79303,394.61755 c 0,0 -0.39922,9.32222 -0.46505,12.38589 -0.005,0.24085 0.0423,0.66608 0.28314,0.66489 0.23747,-0.001 0.26662,-0.42086 0.27245,-0.65827 0.074,-3.01738 -0.0905,-12.39248 -0.0905,-12.39248 z"
       id="path7044" />
    <path
       inkscape:connector-curvature="0"
       style="fill:#6f8a91"
       sodipodi:nodetypes="csasc"
       d="m 211.54224,418.0995 c 0,0 -0.24127,5.63382 -0.28106,7.48573 -0.003,0.14556 0.0255,0.40257 0.17112,0.40183 0.14352,-6.6e-4 0.16114,-0.25435 0.16466,-0.39783 0.0448,-1.82356 -0.0547,-7.48969 -0.0547,-7.48969 z"
       id="path7046" />
    <path
       inkscape:connector-curvature="0"
       style="fill:#6f8a91"
       sodipodi:nodetypes="csasc"
       d="m 222.87767,403.51313 c 0,0 -0.87907,20.52708 -1.02408,27.27427 -0.0114,0.53034 0.0931,1.46674 0.62349,1.46411 0.52291,-0.003 0.58709,-0.92675 0.59992,-1.44954 0.16303,-6.64432 -0.19936,-27.28878 -0.19936,-27.28878 z"
       id="path7048" />
    <path
       inkscape:connector-curvature="0"
       style="fill:#6f8a91"
       sodipodi:nodetypes="csasc"
       d="m 224.46028,413.8924 c 0,0 -0.38447,8.97734 -0.44787,11.92825 -0.005,0.23193 0.0407,0.64147 0.27269,0.64031 0.22868,-10e-4 0.25675,-0.40531 0.26237,-0.63394 0.0713,-2.90587 -0.0872,-11.93485 -0.0872,-11.93485 z"
       id="path7050" />
    <path
       inkscape:connector-curvature="0"
       style="fill:#6f8a91"
       sodipodi:nodetypes="csasc"
       d="m 205.2184,421.14602 c 0,0 -0.34771,8.11944 -0.40505,10.78811 -0.005,0.20976 0.0368,0.58016 0.24661,0.57911 0.20684,-10e-4 0.23223,-0.36658 0.2373,-0.57335 0.0645,-2.62812 -0.0789,-10.79404 -0.0789,-10.79404 z"
       id="path7056" />
    <path
       inkscape:connector-curvature="0"
       style="fill:#6f8a91"
       sodipodi:nodetypes="csasc"
       d="m 214.83274,426.63239 c 0,0 -0.41057,9.58731 -0.47829,12.73868 -0.005,0.24769 0.0435,0.68507 0.29121,0.68382 0.24423,-10e-4 0.27421,-0.43285 0.28019,-0.67697 0.0761,-3.10329 -0.0931,-12.74527 -0.0931,-12.74527 z"
       id="path7058" />
    <path
       inkscape:connector-curvature="0"
       style="fill:#6f8a91"
       sodipodi:nodetypes="csasc"
       d="m 210.72456,423.33529 c 0,0 -0.23007,5.3723 -0.26801,7.13822 -0.003,0.1388 0.0243,0.38386 0.16317,0.38317 0.13686,-6.4e-4 0.15366,-0.24255 0.15702,-0.37936 0.0427,-1.73895 -0.0522,-7.14217 -0.0522,-7.14217 z"
       id="path7060" />
    <path
       inkscape:connector-curvature="0"
       style="fill:#6f8a91"
       sodipodi:nodetypes="csasc"
       d="m 212.13572,419.76783 c 0,0 -0.60321,14.08521 -0.70268,18.715 -0.008,0.3639 0.0638,1.00647 0.42782,1.00462 0.35881,-0.002 0.40285,-0.63589 0.41165,-0.9946 0.11187,-4.55923 -0.13679,-18.72489 -0.13679,-18.72489 z"
       id="path7062" />
    <path
       inkscape:connector-curvature="0"
       style="fill:#6f8a91"
       sodipodi:nodetypes="csasc"
       d="m 204.25565,423.01218 c 0,0 -0.34791,8.12405 -0.40529,10.79404 -0.005,0.20989 0.0369,0.5805 0.24676,0.57944 0.20695,-10e-4 0.23235,-0.36677 0.23743,-0.57367 0.0645,-2.62963 -0.0789,-10.79998 -0.0789,-10.79998 z"
       id="path7064" />
    <path
       inkscape:connector-curvature="0"
       style="fill:#6f8a91"
       sodipodi:nodetypes="csasc"
       d="m 201.5784,416.91254 c 0,0 -0.41711,9.73963 -0.4859,12.94112 -0.005,0.25163 0.0442,0.69595 0.29584,0.6947 0.24812,-10e-4 0.27857,-0.43972 0.28466,-0.68778 0.0774,-3.15269 -0.0946,-12.94837 -0.0946,-12.94837 z"
       id="path7066" />
    <path
       inkscape:connector-curvature="0"
       style="fill:#6f8a91"
       sodipodi:nodetypes="csasc"
       d="m 207.70441,430.96478 c 0,0 -0.33987,7.93612 -0.39592,10.54479 -0.005,0.20504 0.036,0.56709 0.24106,0.56605 0.20217,-0.001 0.22699,-0.35831 0.23194,-0.56042 0.063,-2.56891 -0.0771,-10.55072 -0.0771,-10.55072 z"
       id="path7068" />
    <path
       inkscape:connector-curvature="0"
       style="fill:#6f8a91"
       sodipodi:nodetypes="csasc"
       d="m 206.22072,397.44646 c 0,0 -0.6761,15.78784 -0.78761,20.97681 -0.009,0.40789 0.0716,1.12814 0.47953,1.12603 0.40217,-0.002 0.45154,-0.71277 0.46141,-1.11482 0.12538,-5.11017 -0.15334,-20.98802 -0.15334,-20.98802 z"
       id="path7070" />
    <path
       inkscape:connector-curvature="0"
       style="fill:#6f8a91"
       sodipodi:nodetypes="csasc"
       d="m 199.56717,400.6974 c 0,0 -0.54372,12.69648 -0.63339,16.86994 -0.007,0.32802 0.0576,0.90723 0.38564,0.90559 0.32343,-0.002 0.36313,-0.57322 0.37106,-0.89655 0.10084,-4.10964 -0.12331,-16.87852 -0.12331,-16.87852 z"
       id="path7074" />
    <path
       inkscape:connector-curvature="0"
       style="fill:#6f8a91"
       sodipodi:nodetypes="csasc"
       d="m 210.75093,389.46089 c 0,0 -0.46401,10.83559 -0.54053,14.39711 -0.006,0.27993 0.0491,0.77423 0.3291,0.77284 0.27602,-10e-4 0.3099,-0.48917 0.31667,-0.76512 0.0861,-3.50719 -0.10524,-14.40437 -0.10524,-14.40437 z"
       id="path7076" />
    <path
       inkscape:connector-curvature="0"
       style="fill:#6f8a91"
       sodipodi:nodetypes="csasc"
       d="m 234.00868,410.64146 c 0,0 -0.65363,15.26293 -0.76143,20.2798 -0.009,0.39433 0.0692,1.09061 0.46358,1.08864 0.38881,-0.002 0.43653,-0.6891 0.44607,-1.07776 0.12122,-4.94031 -0.14823,-20.29035 -0.14823,-20.29035 z"
       id="path7080" />
    <path
       inkscape:connector-curvature="0"
       style="opacity:0.85;fill:#76797e;filter:url(#filter6242-0)"
       sodipodi:nodetypes="aaaacaasscaaasaaaaaaa"
       d="m -639.68,410.16 c 2.6764,3.5854 8.7026,3.4097 13.132,2.7779 2.6472,-0.37756 4.6511,-2.6507 7.0711,-3.7881 2.2212,-1.0439 4.4171,-2.2718 6.8185,-2.7779 5.7682,-1.2157 17.678,-0.50508 17.678,-0.50508 0,0 -15.248,3.6421 -15.405,-1.5152 -0.0646,-2.1303 4.208,-0.67975 6.3135,-1.0102 2.1876,-0.34329 6.0609,3.0305 6.566,-1.0102 0.50508,-4.0406 -0.75762,-3.5355 0.75761,-4.0406 1.5152,-0.50508 3.7881,-1.7678 3.7881,-1.7678 0,0 -3.9471,-3.1639 -6.0609,-4.5457 -1.8615,-1.2169 -5.1589,-1.156 -5.8084,-3.283 -0.60466,-1.9803 1.2137,-4.1992 2.7779,-5.5558 1.2066,-1.0465 5.0508,-0.50508 4.5457,-1.5152 -0.50508,-1.0102 -2.0183,-3.3698 -3.5355,-4.5457 -2.1754,-1.686 -4.9766,-2.3788 -7.5761,-3.283 -2.4686,-0.85868 -4.9847,-1.6807 -7.5761,-2.0203 -2.0032,-0.2625 -4.0415,-0.0593 -6.0609,0 -2.8658,0.0842 -5.9709,-0.66942 -8.5863,0.50508 -2.715,1.2192 -5.0657,3.6114 -6.3134,6.3134 -4.4256,9.5835 -8.84,23.108 -2.5254,31.567 z"
       id="path7084"
       transform="matrix(0.47272534,0,0,0.47272534,520.35788,212.26428)" />
    <path
       inkscape:connector-curvature="0"
       style="opacity:0.85;fill:url(#linearGradient11249);filter:url(#filter4184-9)"
       sodipodi:nodetypes="aaaaaaaasacaaaaaaaaaaaaaaaaaaaaaaaaaaaaaaaaaaaaaaaaaaaaaaa"
       d="m -656.47,379.9 c 2.21,-2.6523 5.5109,-4.3211 7.5,-7.1429 0.6755,-0.95833 0.7396,-2.2656 1.4286,-3.2143 0.9411,-1.2959 2.0155,-3.5944 3.5714,-3.2143 1.9762,0.48278 0.6022,4.3859 2.1429,5.7143 1.2909,1.1131 3.3026,1.2278 5,1.0714 1.541,-0.14195 3.4997,-0.45251 4.2857,-1.7857 0.5474,-0.92867 -0.7925,-2.2281 -0.3572,-3.2143 0.3269,-0.74068 -2.8201,-1.5349 1.9643,-1.4286 1.7176,0.0382 4.6119,1.4198 6.9643,1.25 2.0652,-0.14911 7.7666,-1.6924 5.8929,-1.9643 1.5471,2.9435 -4.4853,4.9264 -6.9643,7.1429 -1.0119,0.90472 -3.5474,1.1842 -3.2143,2.5 0.3554,1.404 2.8431,0.84293 4.2857,0.71429 1.7628,-0.15719 3.4185,-0.9913 5,-1.7857 1.5342,-0.7707 2.5967,-2.5487 4.2857,-2.8571 1.5625,-0.28529 3.0801,0.78759 4.6429,1.0714 1.7725,0.32195 3.8163,1.6478 5.3571,0.71428 1.1917,-0.72206 1.9161,-2.6232 1.4286,-3.9286 -0.4289,-1.1482 -2.351,-0.91568 -3.2143,-1.7857 -1.0507,-1.0588 -3.0023,-2.7094 -2.1429,-3.9286 1.3194,-1.8717 4.4964,1.0188 6.7858,1.0714 1.0777,0.0248 2.153,-0.54643 3.2142,-0.35715 0.26207,0.0467 0.63986,0.10156 0.71429,0.35715 0.38815,1.333 -2.0169,2.1888 -2.1428,3.5714 -0.1845,2.0259 2.7673,3.7782 2.1428,5.7143 -0.52705,1.634 -2.6995,2.2001 -4.2857,2.8571 -1.6825,0.6969 -3.606,0.57152 -5.3571,1.0714 -2.9342,0.83766 -5.7744,1.9946 -8.5715,3.2143 -0.976,0.42562 -2.9792,0.3708 -2.8571,1.4286 0.2948,2.5529 4.9341,1.9293 7.5,1.7857 3.1582,-0.17675 5.7656,-3.1766 8.9286,-3.2143 1.5057,-0.0179 2.9285,0.77625 4.2857,1.4286 2.1726,1.0442 3.6935,3.5334 6.0714,3.9286 2.421,0.4023 4.707,-1.4858 7.1429,-1.7857 1.7723,-0.21818 3.8975,-1.0287 5.3571,0 1.4466,1.0195 2.6962,3.4824 1.7857,5 -1.6716,2.7864 -6.3936,1.4003 -9.6429,1.4286 -2.7612,0.024 -7.3499,-3.6939 -8.2143,-1.0714 -0.76739,2.3281 4.1094,2.7774 6.4286,3.5714 2.9628,1.0144 6.1652,1.693 9.2857,1.4286 1.5005,-0.12717 2.8471,-0.98352 4.2857,-1.4286 0.82796,-0.25614 1.8934,-1.3333 2.5,-0.71429 1.1333,1.1565 -0.3258,3.4572 -1.4286,4.6429 -1.5659,1.6835 -4.1688,2.0761 -6.4286,2.5 -1.8721,0.35121 -3.8214,0.21239 -5.7143,0 -2.6691,-0.29949 -5.1881,-1.4862 -7.8572,-1.7857 -1.7746,-0.19912 -3.5793,-0.16781 -5.3571,0 -2.5337,0.23915 -5.0374,0.78666 -7.5,1.4286 -2.1858,0.56973 -4.199,1.781 -6.4286,2.1428 -1.6452,0.26697 -4.1047,1.4058 -5,0 -1.0586,-1.6621 3.4532,-3.6324 2.5,-5.3571 -1.3928,-2.5201 -5.7334,-1.5576 -8.5714,-1.0714 -2.6238,0.44943 -5.0801,1.8888 -7.1429,3.5714 -1.6425,1.3398 -1.9288,4.2976 -3.9286,5 -3.4601,1.2154 -7.095,-1.9082 -10.714,-2.5 -7.4352,-1.2158 -19.236,4.6471 -22.5,-2.1429 -3.3908,-7.0528 7.8477,-13.631 12.857,-19.643 z"
       id="path7086"
       transform="matrix(0.47272534,0,0,0.47272534,520.35788,212.26428)" />
    <path
       inkscape:connector-curvature="0"
       style="opacity:0.9;fill:#999999;filter:url(#filter6014-1)"
       d="m -650.54,388.69 7.5761,1.5152 6.0609,2.0203 6.0609,0.50508 5.0508,-0.50508 c 0,0 0.50507,-1.0102 2.5254,-1.5152 2.0203,-0.50508 1.0102,-0.50508 3.0305,-1.0102 2.0203,-0.50507 4.5457,-1.5152 4.5457,-1.5152 l 1.5152,-1.0102 c 0,0 0,-1.0102 -2.5254,-1.5152 -2.5254,-0.50507 -3.5355,-5.0508 -3.5355,-5.0508 0,0 -3.0305,-1.5152 -5.5558,-0.50508 -2.5254,1.0102 -5.0508,3.0305 -8.0812,3.5355 -3.0305,0.50507 -9.0914,-1.0102 -9.0914,-1.0102 l -4.5457,3.0305 z"
       id="path7088"
       transform="matrix(0.47272534,0,0,0.47272534,520.35788,212.26428)" />
    <path
       inkscape:connector-curvature="0"
       style="opacity:0.8;fill:#666666;filter:url(#filter6032-8)"
       d="m -685.14,400.81 5.3033,-2.0203 4.2931,1.7678 c 0,0 1.0102,-1.5152 2.2728,-1.7678 1.2627,-0.25254 3.7881,1.2627 4.7982,1.2627 1.0102,0 -5.5558,0 3.0305,0.50507 8.5863,0.50508 8.3338,1.5152 8.0812,0.25254 -0.25254,-1.2627 -3.283,-4.0406 0.75761,-3.283 4.0406,0.75762 4.0406,0.75762 4.0406,0.75762 l 6.0609,-1.5152 6.8185,3.283 3.0305,0.25253 c 0,0 4.5457,0.75762 5.8084,1.5152 1.2627,0.75762 5.8084,0.50508 1.2627,0.75762 -4.5457,0.25254 -3.7881,-1.7678 -6.3135,0.75761 -2.5254,2.52541 -5.3033,3.7881 -6.566,3.7881 -1.2627,0 -4.0406,-0.75761 -6.3134,-0.75761 -2.2728,0 -4.0406,-0.50508 -5.0508,0.25254 -1.0102,0.75761 -1.7678,2.7779 -3.7881,2.2728 -2.0203,-0.50508 -7.5761,-2.0203 -7.5761,-2.0203 l -2.5254,0 -4.5457,-1.0102 c 0,0 -0.25254,-1.2627 -1.5152,-1.7678 -1.2627,-0.50508 -4.5457,-0.75762 -4.5457,-0.75762 l -3.0305,-0.25254 z"
       id="path7090"
       transform="matrix(0.47272534,0,0,0.47272534,520.35788,212.26428)" />
    <path
       inkscape:connector-curvature="0"
       style="opacity:0.8;fill:#cccccc;filter:url(#filter6268-9)"
       d="m -640.69,388.19 14.395,1.5152 c 0,0 5.3033,-2.7779 6.0609,-2.5254 0.75762,0.25254 5.0508,1.5152 5.0508,1.5152 0,0 5.5558,-0.25254 6.8185,-0.50507 1.2627,-0.25254 10.102,-1.2627 10.102,-1.2627 0,0 6.566,3.5355 7.5762,3.5355 1.0102,0 13.385,1.2627 13.385,1.2627 l 16.162,2.5254 -15.405,2.0203 -16.415,-0.50508 -8.5863,-0.25254 -18.183,3.0305 -12.122,-1.7678 -20.961,1.7678 z"
       id="path7092"
       transform="matrix(0.47272534,0,0,0.47272534,520.35788,212.26428)" />
    <path
       inkscape:connector-curvature="0"
       style="opacity:0.8;fill:#999999;filter:url(#filter4261-1)"
       sodipodi:nodetypes="cccccccccccccccccccccc"
       d="m -662.15,399.8 c 2.2641,3.1413 7.8197,0.75941 11.617,0 2.1462,-0.42923 3.8748,-2.42 6.0609,-2.5254 2.2873,-0.11021 4.2874,1.793 6.566,2.0203 1.6836,0.16793 3.4073,-0.10274 5.0508,-0.50507 2.6419,-0.64676 4.9053,-2.5161 7.5761,-3.0305 2.4798,-0.47757 5.0508,0 7.5762,0 1.852,0 3.7305,0.31267 5.5558,0 2.9916,-0.51243 5.5947,-2.518 8.5863,-3.0305 1.9913,-0.3411 4.8443,1.6129 6.0609,0 0.73809,-0.97851 5.3789,-0.90991 4.347,-1.5712 -1.8644,-1.1948 -9.8186,-0.26518 -11.923,-0.95414 -1.3577,-0.44446 -10.389,0.50555 -5.709,-3.3876 -1.0863,-6.283 -7.7879,6.0157 -13.484,5.913 -2.3446,-0.0423 -6.5876,-0.18051 -6.566,-2.5254 0.0181,-1.9705 4.3463,-0.46457 5.5558,-2.0203 1.0385,-1.3358 1.5873,-3.7501 0.50508,-5.0508 -1.2967,-1.5584 -4.0728,-0.10813 -6.0609,-0.50507 -4.8557,-0.9695 -9.9161,-1.9652 -14.142,-4.5457 -1.6256,-0.99267 -2.1361,-4.0734 -4.0406,-4.0406 -3.4539,0.0595 -5.3059,4.6068 -7.0711,7.5762 -3.2646,5.4917 -9.7965,13 -6.0609,18.183 z"
       id="path7094"
       transform="matrix(0.47272534,0,0,0.47272534,520.35788,212.26428)" />
    <path
       inkscape:connector-curvature="0"
       style="opacity:0.95;fill:url(#linearGradient11251);filter:url(#filter4210-5)"
       sodipodi:nodetypes="cssssssccsccccsscccssscscscsccssssccsscscssccccccccccccc"
       d="m -642.91,363.82 c -3.9645,0.006 -4.9561,7.5384 -8.9063,7.875 -1.8107,0.15428 -2.847,-2.7054 -4.6562,-2.875 -6.9781,-0.65407 -12.715,6.5289 -19.656,7.5 -2.722,0.3808 -5.492,-1.255 -8.1876,-0.71875 -3.29,0.65457 -11.877,0.68339 -11.08,3.942 0.5654,2.3128 8.5616,-1.5595 9.2679,0.71429 0.6857,2.2075 -4.3947,2.0214 -5.6876,3.9375 -0.614,0.90981 0.1471,2.513 -0.7187,3.1875 -3.2885,2.5616 -6.2101,1.1992 -10.357,1.6205 -4.1369,0.42035 -14.185,-3.2771 -14.299,0.87946 -0.0579,2.1087 4.1306,0.96537 6.0626,1.8125 1.2714,0.55752 2.612,1.1433 3.5937,2.125 0.4908,0.49084 0.4481,1.4582 1.0625,1.7812 3.3786,1.776 7.6303,-0.99139 11.438,-0.71875 2.911,0.20846 5.7939,0.88927 8.5625,1.8125 3.9912,1.3309 7.4409,4.0288 11.438,5.3438 1.7298,0.56916 4.303,-0.43181 5.3437,1.0625 1.3089,1.879 -2.7901,5.2782 -1.0624,6.7812 2.1593,1.8786 5.3877,-2.0788 8.2187,-2.5 2.7082,-0.403 5.5049,-0.36344 8.2187,0 2.6906,0.36033 5.3193,1.158 7.8438,2.1562 2.1295,0.84209 3.9461,2.3445 6.0625,3.2188 4.1419,1.7109 8.4478,4.6321 12.875,3.9375 3.2951,-0.517 29.652,-8.1416 8.2187,-5.7188 -0.6221,-3.7922 -2.6617,0.81505 -11.094,-3.2188 -2.0432,-0.97748 -5.5057,1.4967 -6.7813,-0.375 -1.06,-1.5554 0.49,-3.9742 1.7813,-5.3438 1.3194,-1.3993 4.8254,-0.31317 5.375,-2.1562 0.4152,-1.3926 -1.5166,-2.4927 -2.5,-3.5625 -1.2586,-1.369 -2.4279,-3.4111 -4.2813,-3.5625 -2.3402,-0.19117 -4.0509,2.4049 -6.0937,3.5625 -1.2978,0.73539 -2.4354,1.9082 -3.9063,2.1562 -2.1422,0.36132 -4.9901,0.52636 -6.4374,-1.0938 -1.509,-1.6892 0.0876,-4.564 -0.375,-6.7812 -0.2078,-0.9957 -1.5492,-1.9506 -1.0626,-2.8438 1.341,-2.4604 5.5001,-1.103 8.2188,-1.7812 4.6805,-1.1677 9.319,-2.5444 13.938,-3.9375 3.3521,-1.0111 3.9406,-1.9856 10,-3.2188 0.9225,-1.5701 11.124,-2.7093 9.6206,-3.7366 -1.6968,-1.1593 -14.759,-0.93495 -16.777,-0.54464 -2.2693,0.43901 -4.5049,1.0357 -6.7812,1.4375 -2.4869,0.43893 -5.677,2.8101 -7.5,1.0625 -1.7273,-1.6559 -0.2487,-4.9677 0.7188,-7.1562 1.99,-1.8685 14.251,1.7996 0.3437,-6.0625 z m -43.562,28.406 3.9375,0.53125 4.8125,1.7812 2.8438,0.90625 2.3437,1.0625 -0.9063,0.875 -2.3124,-0.53125 -3.4063,-0.875 -2.6563,-1.625 -3.5937,-1.5938 z"
       id="path7096"
       transform="matrix(0.47272534,0,0,0.47272534,520.35788,212.26428)" />
    <path
       inkscape:connector-curvature="0"
       style="opacity:0.9;fill:#999999;filter:url(#filter4331-7)"
       sodipodi:nodetypes="zzzzzzzzzzzzz"
       d="m -668.72,407.88 c 2.8188,0.73042 4.7967,0.0874 7.0711,0 2.2744,-0.0874 4.4615,-0.33645 6.566,-0.50508 2.1045,-0.16863 3.9415,-0.0957 6.0609,-0.50507 2.1194,-0.40941 5.0286,-0.83855 6.566,-2.0203 1.5374,-1.18175 3.4926,-2.0257 2.5254,-4.0406 -0.96723,-2.0149 -6.3902,-0.30158 -8.5863,-1.0102 -2.1961,-0.70857 -2.695,-1.7368 -4.5457,-2.5254 -1.8506,-0.78855 -4.5653,-2.2297 -6.566,-2.0203 -2.0007,0.20943 -3.0119,1.4376 -4.5457,2.5254 -1.5338,1.0877 -2.2267,3.0088 -4.5457,4.0406 -2.319,1.0318 -8.4498,-2.184 -9.0914,1.0102 -0.64156,3.1941 6.2726,4.3203 9.0914,5.0508 z"
       id="path7098"
       transform="matrix(0.47272534,0,0,0.47272534,520.35788,212.26428)" />
    <path
       inkscape:connector-curvature="0"
       style="opacity:0.9;fill:#a6a7a7;filter:url(#filter5968-2)"
       d="m -615.18,382.63 6.0609,2.5254 4.0406,-2.5254 4.0406,1.0102 5.5558,2.5254 4.5457,1.5152 c 0,0 -1.5152,1.0102 -3.5355,0.50507 -2.0203,-0.50507 -6.566,-1.0102 -6.566,-1.0102 l -6.566,3.0305 -4.0406,-1.0102 -3.5355,-2.0203 z"
       id="path7100"
       transform="matrix(0.47272534,0,0,0.47272534,520.35788,212.26428)" />
    <path
       inkscape:connector-curvature="0"
       style="opacity:0.5;fill:#b3b3b3;filter:url(#filter6074-5)"
       d="m -642.71,398.04 7.0711,-0.50508 5.0508,1.0102 7.5761,-0.25253 7.0711,-1.0102 -6.0609,-0.75761 c 0,0 -3.7881,0.25254 -5.3033,0.50508 -1.5152,0.25253 -5.5558,-1.0102 -6.8185,-1.0102 l -3.7881,0 c -1.7678,0 -4.7982,2.0203 -4.7982,2.0203 z"
       id="path7102"
       transform="matrix(0.47272534,0,0,0.47272534,520.35788,212.26428)" />
    <path
       inkscape:connector-curvature="0"
       style="opacity:0.67278;fill:#9c9ea0;filter:url(#filter6192-7)"
       d="m -639.43,371.52 2.5254,-1.5152 0.75761,-2.2728 2.5254,0.75762 1.0102,0.50507 0,3.0305 -2.0203,0 -2.7779,2.0203 z"
       id="path7104"
       transform="matrix(0.47272534,0,0,0.47272534,520.35788,212.26428)" />
    <path
       d="m -616.19,395.51 7.0711,-0.50508 5.0508,1.0102 7.5761,-0.25253 7.0711,-1.0102 -6.0609,-0.75761 c 0,0 -3.7881,0.25254 -5.3033,0.50508 -1.5152,0.25253 -5.5558,-1.0102 -6.8185,-1.0102 l -3.7881,0 c -1.7678,0 -4.7982,2.0203 -4.7982,2.0203 z"
       inkscape:connector-curvature="0"
       style="opacity:0.5;fill:#959798;filter:url(#filter6074-5)"
       id="path7106"
       transform="matrix(0.47272534,0,0,0.47272534,520.35788,212.26428)" />
    <path
       inkscape:connector-curvature="0"
       style="opacity:0.5;fill:#959798;filter:url(#filter6074-5)"
       d="m -623.77,375.05 7.0711,-0.50508 5.0508,1.0102 7.5761,-0.25253 7.0711,-1.0102 -6.0609,-0.75761 c 0,0 -3.7881,0.25254 -5.3033,0.50508 -1.5152,0.25253 -5.5558,-1.0102 -6.8185,-1.0102 l -3.7881,0 c -1.7678,0 -4.7982,2.0203 -4.7982,2.0203 z"
       id="path7108"
       transform="matrix(0.47272534,0,0,0.47272534,520.35788,212.26428)" />
    <path
       d="m -645.49,407.38 7.0711,-0.50508 5.0508,1.0102 7.5761,-0.25253 7.0711,-1.0102 -6.0609,-0.75761 c 0,0 -3.7881,0.25254 -5.3033,0.50508 -1.5152,0.25253 -5.5558,-1.0102 -6.8185,-1.0102 l -3.7881,0 c -1.7678,0 -4.7982,2.0203 -4.7982,2.0203 z"
       inkscape:connector-curvature="0"
       style="opacity:0.5;fill:#b3b3b3;filter:url(#filter6074-5)"
       id="path7110"
       transform="matrix(0.47272534,0,0,0.47272534,520.35788,212.26428)" />
    <path
       inkscape:connector-curvature="0"
       style="opacity:0.5;fill:#959798;filter:url(#filter6074-5)"
       d="m -704.58,397.53 7.0711,-0.50508 5.0508,1.0102 7.5761,-0.25253 7.0711,-1.0102 -6.0609,-0.75761 c 0,0 -3.7881,0.25254 -5.3033,0.50508 -1.5152,0.25253 -5.5558,-1.0102 -6.8185,-1.0102 l -3.7881,0 c -1.7678,0 -4.7982,2.0203 -4.7982,2.0203 z"
       id="path7112"
       transform="matrix(0.47272534,0,0,0.47272534,520.35788,212.26428)" />
    <path
       inkscape:connector-curvature="0"
       style="opacity:0.6;fill:#808080;filter:url(#filter6354-6)"
       d="m -676.04,385.66 4.0406,-2.5254 2.7779,0.25254 4.5457,-1.5152 5.5558,0 4.2932,-0.50508 -2.2728,3.283 -4.0406,-0.75761 -4.7982,1.0102 -4.2931,1.5152 z"
       id="path7114"
       transform="matrix(0.47272534,0,0,0.47272534,520.35788,212.26428)" />
    <path
       id="path3778"
       d="m 197.39186,383.05624 -4.67829,-0.88031 c 0,0 -0.69167,1.38338 -2.04993,0.76713 l -2.42717,-1.20725 c 0,0 -0.71683,-0.44015 -1.39596,-0.54077 l -1.16952,-0.16348 c 0,0 -0.23895,-0.22637 0.0628,-0.33955 l 1.33309,0.20121 c 0,0 1.01864,0.0503 1.40853,-0.0377 l 1.92409,-0.27666 c 0,0 2.07509,-0.61623 2.35171,1.15694 l 4.71603,0.66652 z"
       style="fill:#000000;stroke:#000000;stroke-width:0.10934169px"
       inkscape:connector-curvature="0" />
    <circle
       id="path2998"
       style="fill:#000000"
       cx="198.81998"
       cy="382.87231"
       r="1.6401051" />
    <circle
       id="path2996"
       style="fill:#cfb53b"
       cx="198.82111"
       cy="382.87442"
       r="0.7465229" />
    <path
       id="path3801"
       style="fill:#000000;stroke:#000000;stroke-width:0.10934169px"
       inkscape:connector-curvature="0"
       d="m 199.79348,382.08137 -0.61453,-0.44633 4.59648,-7.38202 c 0,0 -0.71275,-0.78685 -0.12028,-1.3531 l 2.72926,-2.66495 1.25058,-2.16463 c 0,0 0.22383,-0.0395 0.16573,0.0872 l -1.59912,2.92497 -0.86842,3.1178 c 0,0 -0.35875,0.59483 -1.13826,0.35339 z"
       inkscape:transform-center-x="-5.2118433"
       inkscape:transform-center-y="-8.6490736" />
  </g>
  <metadata
     id="metadata4712">
    <rdf:RDF>
      <cc:Work>
        <dc:format>image/svg+xml</dc:format>
        <dc:type
           rdf:resource="http://purl.org/dc/dcmitype/StillImage" />
        <cc:license
           rdf:resource="http://creativecommons.org/publicdomain/zero/1.0/" />
        <dc:publisher>
          <cc:Agent
             rdf:about="http://openclipart.org/">
            <dc:title>Openclipart</dc:title>
          </cc:Agent>
        </dc:publisher>
        <dc:title></dc:title>
        <dc:date>2012-06-14T11:42:36</dc:date>
        <dc:description />
        <dc:source>https://openclipart.org/detail/170680/weather-icon---sun-rain-by-gnokii-170680</dc:source>
        <dc:creator>
          <cc:Agent>
            <dc:title>gnokii</dc:title>
          </cc:Agent>
        </dc:creator>
        <dc:subject>
          <rdf:Bag>
            <rdf:li>cloud</rdf:li>
            <rdf:li>clouds</rdf:li>
            <rdf:li>icon</rdf:li>
            <rdf:li>rain</rdf:li>
            <rdf:li>rainy</rdf:li>
            <rdf:li>sun</rdf:li>
            <rdf:li>sun rain</rdf:li>
            <rdf:li>weather</rdf:li>
          </rdf:Bag>
        </dc:subject>
      </cc:Work>
      <cc:License
         rdf:about="http://creativecommons.org/publicdomain/zero/1.0/">
        <cc:permits
           rdf:resource="http://creativecommons.org/ns#Reproduction" />
        <cc:permits
           rdf:resource="http://creativecommons.org/ns#Distribution" />
        <cc:permits
           rdf:resource="http://creativecommons.org/ns#DerivativeWorks" />
      </cc:License>
    </rdf:RDF>
  </metadata>
</svg>
